<mxfile host="Electron" agent="Mozilla/5.0 (Windows NT 10.0; Win64; x64) AppleWebKit/537.36 (KHTML, like Gecko) draw.io/26.0.4 Chrome/128.0.6613.186 Electron/32.2.5 Safari/537.36" version="26.0.4">
  <diagram name="第 1 页" id="3dT9pY1XKjBThst0bTS5">
    <mxGraphModel dx="2278" dy="1219" grid="0" gridSize="10" guides="1" tooltips="1" connect="1" arrows="1" fold="1" page="0" pageScale="1" pageWidth="827" pageHeight="1169" math="0" shadow="0">
      <root>
        <mxCell id="0" />
        <mxCell id="1" parent="0" />
        <mxCell id="I-n8jy0cu7BncbQuSpRO-42" style="edgeStyle=orthogonalEdgeStyle;rounded=0;orthogonalLoop=1;jettySize=auto;html=1;" edge="1" parent="1" source="I-n8jy0cu7BncbQuSpRO-6" target="I-n8jy0cu7BncbQuSpRO-7">
          <mxGeometry relative="1" as="geometry" />
        </mxCell>
        <mxCell id="I-n8jy0cu7BncbQuSpRO-6" value="&lt;font style=&quot;font-size: 14px;&quot;&gt;&lt;b&gt;Thread-3&lt;/b&gt;&lt;/font&gt;" style="rounded=0;whiteSpace=wrap;html=1;fillColor=#f5f5f5;fontColor=#333333;strokeColor=#666666;" vertex="1" parent="1">
          <mxGeometry x="454" y="195" width="120" height="60" as="geometry" />
        </mxCell>
        <mxCell id="I-n8jy0cu7BncbQuSpRO-43" style="edgeStyle=orthogonalEdgeStyle;rounded=0;orthogonalLoop=1;jettySize=auto;html=1;entryX=0;entryY=0.5;entryDx=0;entryDy=0;" edge="1" parent="1" source="I-n8jy0cu7BncbQuSpRO-7" target="I-n8jy0cu7BncbQuSpRO-8">
          <mxGeometry relative="1" as="geometry" />
        </mxCell>
        <mxCell id="I-n8jy0cu7BncbQuSpRO-7" value="&lt;font style=&quot;font-size: 14px;&quot;&gt;&lt;b&gt;Thread-4&lt;/b&gt;&lt;/font&gt;" style="rounded=0;whiteSpace=wrap;html=1;fillColor=#f5f5f5;fontColor=#333333;strokeColor=#666666;" vertex="1" parent="1">
          <mxGeometry x="665" y="195" width="120" height="60" as="geometry" />
        </mxCell>
        <mxCell id="I-n8jy0cu7BncbQuSpRO-8" value="&lt;font style=&quot;font-size: 14px;&quot;&gt;&lt;b&gt;Thread-5&lt;/b&gt;&lt;/font&gt;" style="rounded=0;whiteSpace=wrap;html=1;fillColor=#f5f5f5;fontColor=#333333;strokeColor=#666666;" vertex="1" parent="1">
          <mxGeometry x="875" y="195" width="120" height="60" as="geometry" />
        </mxCell>
        <mxCell id="I-n8jy0cu7BncbQuSpRO-2" value="&lt;div&gt;&lt;br&gt;&lt;/div&gt;" style="rounded=0;whiteSpace=wrap;html=1;fillColor=#d5e8d4;strokeColor=#82b366;align=center;" vertex="1" parent="1">
          <mxGeometry x="33" y="45" width="330" height="322" as="geometry" />
        </mxCell>
        <mxCell id="I-n8jy0cu7BncbQuSpRO-30" style="edgeStyle=orthogonalEdgeStyle;rounded=0;orthogonalLoop=1;jettySize=auto;html=1;entryX=1;entryY=0.5;entryDx=0;entryDy=0;" edge="1" parent="1" source="I-n8jy0cu7BncbQuSpRO-3" target="I-n8jy0cu7BncbQuSpRO-25">
          <mxGeometry relative="1" as="geometry" />
        </mxCell>
        <mxCell id="I-n8jy0cu7BncbQuSpRO-3" value="&lt;font style=&quot;font-size: 14px;&quot;&gt;&lt;b&gt;WaitSet&lt;/b&gt;&lt;/font&gt;" style="rounded=0;whiteSpace=wrap;html=1;fillColor=#dae8fc;strokeColor=#6c8ebf;" vertex="1" parent="1">
          <mxGeometry x="142" y="109" width="120" height="60" as="geometry" />
        </mxCell>
        <mxCell id="I-n8jy0cu7BncbQuSpRO-44" style="edgeStyle=orthogonalEdgeStyle;rounded=0;orthogonalLoop=1;jettySize=auto;html=1;entryX=0;entryY=0.5;entryDx=0;entryDy=0;" edge="1" parent="1" source="I-n8jy0cu7BncbQuSpRO-4" target="I-n8jy0cu7BncbQuSpRO-6">
          <mxGeometry relative="1" as="geometry" />
        </mxCell>
        <mxCell id="I-n8jy0cu7BncbQuSpRO-4" value="&lt;span style=&quot;font-size: 14px;&quot;&gt;&lt;b&gt;EntryList&lt;/b&gt;&lt;/span&gt;" style="rounded=0;whiteSpace=wrap;html=1;fillColor=#dae8fc;strokeColor=#6c8ebf;" vertex="1" parent="1">
          <mxGeometry x="142" y="195" width="120" height="60" as="geometry" />
        </mxCell>
        <mxCell id="I-n8jy0cu7BncbQuSpRO-24" style="edgeStyle=orthogonalEdgeStyle;rounded=0;orthogonalLoop=1;jettySize=auto;html=1;entryX=1;entryY=0.5;entryDx=0;entryDy=0;" edge="1" parent="1" source="I-n8jy0cu7BncbQuSpRO-5" target="I-n8jy0cu7BncbQuSpRO-23">
          <mxGeometry relative="1" as="geometry" />
        </mxCell>
        <mxCell id="I-n8jy0cu7BncbQuSpRO-5" value="&lt;span style=&quot;font-size: 14px;&quot;&gt;&lt;b&gt;owner&lt;/b&gt;&lt;/span&gt;" style="rounded=0;whiteSpace=wrap;html=1;fillColor=#dae8fc;strokeColor=#6c8ebf;" vertex="1" parent="1">
          <mxGeometry x="142" y="276" width="120" height="60" as="geometry" />
        </mxCell>
        <mxCell id="I-n8jy0cu7BncbQuSpRO-10" value="&lt;b style=&quot;&quot;&gt;&lt;font style=&quot;font-size: 18px;&quot;&gt;BLOCKED&lt;/font&gt;&lt;/b&gt;" style="text;html=1;align=center;verticalAlign=middle;resizable=0;points=[];autosize=1;strokeColor=none;fillColor=none;" vertex="1" parent="1">
          <mxGeometry x="671.5" y="122" width="107" height="34" as="geometry" />
        </mxCell>
        <mxCell id="I-n8jy0cu7BncbQuSpRO-23" value="&lt;font style=&quot;font-size: 14px;&quot;&gt;&lt;b&gt;Thread-2&lt;/b&gt;&lt;/font&gt;" style="rounded=0;whiteSpace=wrap;html=1;fillColor=#99CCFF;fontColor=#ffffff;strokeColor=#006EAF;" vertex="1" parent="1">
          <mxGeometry x="-188" y="276" width="120" height="60" as="geometry" />
        </mxCell>
        <mxCell id="I-n8jy0cu7BncbQuSpRO-25" value="" style="ellipse;whiteSpace=wrap;html=1;fillColor=#dae8fc;strokeColor=#6c8ebf;" vertex="1" parent="1">
          <mxGeometry x="-363" y="38.5" width="332" height="201" as="geometry" />
        </mxCell>
        <mxCell id="I-n8jy0cu7BncbQuSpRO-26" value="&lt;font style=&quot;font-size: 14px;&quot;&gt;&lt;b&gt;Thread-0&lt;/b&gt;&lt;/font&gt;" style="rounded=0;whiteSpace=wrap;html=1;fillColor=#f5f5f5;fontColor=#333333;strokeColor=#666666;" vertex="1" parent="1">
          <mxGeometry x="-317" y="109" width="120" height="60" as="geometry" />
        </mxCell>
        <mxCell id="I-n8jy0cu7BncbQuSpRO-27" value="&lt;font style=&quot;font-size: 14px;&quot;&gt;&lt;b&gt;Thread-1&lt;/b&gt;&lt;/font&gt;" style="rounded=0;whiteSpace=wrap;html=1;fillColor=#f5f5f5;fontColor=#333333;strokeColor=#666666;" vertex="1" parent="1">
          <mxGeometry x="-197" y="109" width="120" height="60" as="geometry" />
        </mxCell>
        <mxCell id="I-n8jy0cu7BncbQuSpRO-29" value="&lt;font style=&quot;font-size: 18px;&quot;&gt;&lt;b style=&quot;&quot;&gt;TIMED_WAITING 或&amp;nbsp;&lt;/b&gt;&lt;b style=&quot;&quot;&gt;WAITING&lt;/b&gt;&lt;/font&gt;" style="text;html=1;align=center;verticalAlign=middle;resizable=0;points=[];autosize=1;strokeColor=none;fillColor=none;" vertex="1" parent="1">
          <mxGeometry x="-330" y="-25" width="266" height="34" as="geometry" />
        </mxCell>
        <mxCell id="I-n8jy0cu7BncbQuSpRO-32" value="&lt;div&gt;&lt;br&gt;&lt;/div&gt;" style="rounded=0;whiteSpace=wrap;html=1;fillColor=#d5e8d4;strokeColor=#82b366;align=center;" vertex="1" parent="1">
          <mxGeometry x="33" y="-268" width="330" height="158" as="geometry" />
        </mxCell>
        <mxCell id="I-n8jy0cu7BncbQuSpRO-33" value="&lt;font style=&quot;font-size: 14px;&quot;&gt;&lt;b&gt;Java对象&lt;/b&gt;&lt;/font&gt;" style="text;html=1;align=center;verticalAlign=middle;resizable=0;points=[];autosize=1;strokeColor=none;fillColor=none;" vertex="1" parent="1">
          <mxGeometry x="155.5" y="-258" width="77" height="29" as="geometry" />
        </mxCell>
        <mxCell id="I-n8jy0cu7BncbQuSpRO-34" value="&lt;font style=&quot;font-size: 14px;&quot;&gt;&lt;b&gt;Mark Word&lt;/b&gt;&lt;/font&gt;" style="rounded=0;whiteSpace=wrap;html=1;fillColor=#fff2cc;strokeColor=#d6b656;" vertex="1" parent="1">
          <mxGeometry x="61.5" y="-215" width="273" height="60" as="geometry" />
        </mxCell>
        <mxCell id="I-n8jy0cu7BncbQuSpRO-36" value="&lt;font style=&quot;font-size: 14px;&quot;&gt;&lt;b&gt;Monitor&lt;/b&gt;&lt;/font&gt;" style="text;html=1;align=center;verticalAlign=middle;resizable=0;points=[];autosize=1;strokeColor=none;fillColor=none;" vertex="1" parent="1">
          <mxGeometry x="167.5" y="57" width="69" height="29" as="geometry" />
        </mxCell>
        <mxCell id="I-n8jy0cu7BncbQuSpRO-41" style="edgeStyle=orthogonalEdgeStyle;rounded=0;orthogonalLoop=1;jettySize=auto;html=1;entryX=0.5;entryY=1;entryDx=0;entryDy=0;endArrow=none;endFill=0;startArrow=classic;startFill=1;" edge="1" parent="1" source="I-n8jy0cu7BncbQuSpRO-2" target="I-n8jy0cu7BncbQuSpRO-34">
          <mxGeometry relative="1" as="geometry" />
        </mxCell>
      </root>
    </mxGraphModel>
  </diagram>
</mxfile>
